<?xml version="1.0" standalone="no"?>
<!DOCTYPE svg PUBLIC "-//W3C//DTD SVG 20010904//EN"
 "http://www.w3.org/TR/2001/REC-SVG-20010904/DTD/svg10.dtd">
<svg version="1.0" xmlns="http://www.w3.org/2000/svg"
 width="1200.000000pt" height="480.000000pt" viewBox="0 0 1200.000000 480.000000"
 preserveAspectRatio="xMidYMid meet">

<g transform="translate(0.000000,480.000000) scale(0.100000,-0.100000)"
fill="#000000" stroke="none">
<path d="M8335 2990 c-21 -34 -45 -146 -52 -245 -2 -38 -8 -73 -11 -77 -4 -4
-69 -13 -145 -19 -122 -11 -137 -14 -137 -31 0 -17 -111 -18 -3375 -18 -1970
0 -3375 -4 -3375 -9 0 -12 373 -194 560 -274 19 -8 56 -24 82 -36 26 -11 52
-21 58 -21 6 0 18 -4 28 -10 9 -5 40 -17 67 -27 47 -17 203 -18 3000 -23 2592
-4 2950 -7 2950 -20 0 -11 29 -17 135 -28 74 -7 141 -15 148 -17 8 -3 12 -25
12 -65 0 -102 44 -263 74 -268 23 -5 31 8 50 73 32 110 45 262 45 519 0 158 3
197 13 194 8 -3 14 -24 16 -52 3 -41 5 -46 23 -41 18 6 19 0 19 -129 0 -129
-9 -166 -26 -113 -8 21 -8 20 -14 -8 -4 -16 -5 -33 -3 -37 2 -5 506 -8 1120
-8 1103 0 1115 0 1143 20 48 35 60 71 60 190 0 119 -12 155 -60 190 -28 20
-40 20 -1152 20 -861 0 -1127 3 -1136 12 -7 7 -12 37 -12 67 0 79 -22 195 -52
274 -10 27 -41 37 -53 17z m33 -142 c46 -185 43 -754 -4 -916 -9 -30 -38 -25
-42 8 -2 14 -8 29 -13 35 -5 5 -9 44 -9 87 0 71 2 78 20 78 19 0 20 7 20 260
0 253 -1 260 -20 260 -18 0 -20 7 -20 79 0 44 5 83 10 86 6 3 10 16 10 29 0
53 34 48 48 -6z m152 -283 c0 -37 -13 -47 -24 -19 -8 20 2 54 15 54 5 0 9 -16
9 -35z m2198 -109 c2 -127 1 -137 -15 -134 -16 3 -18 18 -21 128 -3 131 0 154
21 148 9 -3 13 -43 15 -142z m-2038 104 c0 -4 18 -38 40 -74 45 -75 46 -77 23
-112 -29 -45 -53 -88 -60 -107 -13 -40 -47 -2 -110 119 -15 31 -15 33 16 77
17 25 31 49 31 52 0 15 42 65 51 60 5 -4 9 -10 9 -15z m1605 -96 c31 -56 32
-49 -24 -149 -30 -53 -49 -72 -60 -60 -5 6 -21 33 -36 60 -15 28 -31 54 -36
60 -22 23 -9 62 56 165 l27 42 22 -33 c13 -19 35 -57 51 -85z m274 64 c12 -21
30 -54 41 -73 11 -20 20 -40 20 -45 0 -6 -18 -40 -40 -76 -22 -36 -40 -70 -40
-75 0 -5 -6 -9 -14 -9 -8 0 -29 26 -47 58 -66 113 -63 100 -29 154 16 27 30
52 30 55 0 3 10 18 21 35 23 32 27 31 58 -24z m-1561 15 c11 -16 32 -51 47
-80 l27 -52 -28 -53 c-37 -69 -63 -108 -74 -108 -12 0 -90 139 -90 161 0 10 8
33 19 51 45 81 64 108 71 108 5 0 17 -12 28 -27z m313 0 c7 -16 26 -50 41 -76
16 -26 28 -52 28 -58 0 -5 -18 -39 -40 -75 -22 -36 -40 -70 -40 -76 0 -24 -34
1 -57 42 -14 25 -34 60 -45 79 l-19 34 30 49 c17 27 31 51 31 54 0 13 34 54
44 54 7 0 19 -12 27 -27z m307 0 c11 -16 32 -51 47 -80 29 -58 31 -51 -24
-148 -30 -53 -49 -72 -60 -60 -5 6 -21 33 -36 60 -15 28 -31 54 -36 60 -14 15
-10 52 10 87 45 81 64 108 71 108 5 0 17 -12 28 -27z m315 -5 c9 -18 28 -52
42 -76 14 -23 25 -47 25 -52 0 -6 -18 -40 -40 -76 -22 -36 -40 -70 -40 -76 0
-24 -34 1 -57 42 -14 25 -34 60 -45 78 -10 18 -17 36 -15 40 49 90 91 152 101
152 7 0 20 -15 29 -32z m835 5 c26 -57 11 -293 -19 -293 -4 0 -8 12 -10 28 -6
45 2 292 9 292 4 0 13 -12 20 -27z m-2774 -5 c9 -35 7 -271 -3 -286 -5 -8 -21
-12 -37 -10 l-29 3 -3 145 c-1 79 0 150 2 157 3 7 18 13 35 13 21 0 30 -6 35
-22z m-6279 -28 c58 -27 113 -52 260 -120 39 -17 79 -37 90 -43 15 -9 730 -13
2915 -17 l2895 -5 0 -35 0 -35 -2904 -3 -2903 -2 -62 29 c-33 16 -97 45 -141
66 -44 20 -120 56 -170 80 -49 23 -120 57 -157 74 -38 18 -68 35 -68 40 0 4
42 5 93 3 75 -3 103 -8 152 -32z m6583 -107 c3 -23 3 -23 -127 -23 -120 0
-131 1 -131 18 0 10 3 22 7 26 4 3 61 5 127 4 117 -3 121 -4 124 -25z m-540
-20 c-3 -17 -147 -18 -2827 -21 -2066 -1 -2828 1 -2837 9 -8 6 -11 15 -8 20 3
5 1203 9 2840 9 2695 0 2835 -1 2832 -17z m537 -108 l0 -70 -129 -3 c-90 -2
-132 1 -137 9 -6 11 -3 67 7 117 4 22 6 23 132 20 l127 -3 0 -70z m2425 -16
c0 -24 -4 -30 -17 -27 -22 4 -29 34 -13 53 17 21 30 9 30 -26z"/>
</g>
</svg>
