<?xml version="1.0" encoding="UTF-8"?>
<svg version="1.1" xmlns="http://www.w3.org/2000/svg" width="416" height="379">
<path d="M0 0 C2.0625 0.9375 2.0625 0.9375 4 2 C4.78375 2.04125 5.5675 2.0825 6.375 2.125 C10.12953623 3.37651208 11.25871337 5.95176851 13.44921875 9.1328125 C15.58450824 11.70376559 17.82147428 12.20536857 21 13 C23 16 23 16 22.75 18.5625 C22 21 22 21 20 23 C19.731875 23.969375 19.46375 24.93875 19.1875 25.9375 C17.74853486 29.64851537 16.56663104 30.38652405 13 32 C10.6875 32.6875 10.6875 32.6875 9 33 C5.36665026 44.04596687 5.14555634 56.86423097 10.41796875 67.39453125 C17.09842239 78.39666107 26.74444157 84.04230089 38.8359375 87.90625 C41.23750169 88.43474956 43.55208127 88.77075047 46 89 C47.08023437 89.10699219 48.16046875 89.21398437 49.2734375 89.32421875 C52.18116293 89.58516847 55.08691491 89.80979857 58 90 C58.061875 88.948125 58.12375 87.89625 58.1875 86.8125 C59.16386552 82.23109256 60.30200229 80.81369391 64 78 C67.34131467 76.42390817 69.54657371 75.54712079 73.15625 76.671875 C76.84924566 78.41132948 78.68690869 79.53036303 81 83 C81.79494788 86.94416446 81.84687498 90.53996554 79.796875 94.07421875 C77.15669638 97.2544339 74.79029301 99.29436814 71 101 C72.32 102.32 73.64 103.64 75 105 C75.66 104.34 76.32 103.68 77 103 C81.10095984 100.26602678 83.1266034 100.53586699 88 101 C92.25904943 102.59912265 93.45057629 104.91212377 95.31640625 108.890625 C96.27239038 111.8405189 95.87907996 114.06973347 95 117 C95.86625 117.0928125 95.86625 117.0928125 96.75 117.1875 C100.06169578 118.38339014 101.18391731 120.01643559 103 123 C103.5625 126.5 103.5625 126.5 103 130 C100.59036088 133.26009998 98.92905642 134.70349263 95.0625 135.9375 C91.63094726 136.00753169 89.22888723 135.07629574 86 134 C84.515 134.99 84.515 134.99 83 136 C79.19634586 135.8616853 76.74873203 135.49915469 73.5625 133.375 C71.39767976 130.08447324 71.58571255 127.86668289 72 124 C73 121.5625 73 121.5625 74 120 C69.96009602 120 67.52620608 121.04591088 64 123 C62.5651779 125.86873293 62.5651779 125.86873293 62.1875 129.375 C62.08332764 130.03290527 61.97915527 130.69081055 61.87182617 131.36865234 C61.54103288 133.57546886 61.2672406 135.78464153 61 138 C60.84772949 139.13405273 60.84772949 139.13405273 60.69238281 140.29101562 C56.23019291 174.15861466 59.4147804 208.63119817 66 242 C66.01981934 241.38294189 66.03963867 240.76588379 66.06005859 240.13012695 C66.46704604 227.96435041 67.01909877 215.87520964 68.42724609 203.77856445 C68.92464761 199.24623097 68.87558117 195.51688698 68 191 C68.33 190.34 68.66 189.68 69 189 C69.99 189 70.98 189 72 189 C72.15855469 188.34515625 72.31710937 187.6903125 72.48046875 187.015625 C76.4117052 171.63819182 82.00289972 159.82377731 95.86328125 151.1640625 C97.81808157 150.0991073 99.73992436 149.24178309 101.8125 148.4375 C105.42902453 146.80651835 106.89134889 145.3251806 109 142 C111.76469382 134.05150526 110.33546701 123.17973546 109 115 C108.24460937 114.93039063 107.48921875 114.86078125 106.7109375 114.7890625 C102.34611851 113.51861086 101.2246139 110.46364964 99.12109375 106.64453125 C98 104 98 104 97.6875 100.0625 C99 97 99 97 102.1875 95.5625 C102.81914062 95.36140625 103.45078125 95.1603125 104.1015625 94.953125 C106.59885463 93.69934048 107.53245826 92.12780126 109.0625 89.8125 C110.5234375 87.66796875 110.5234375 87.66796875 112 86 C115.1875 85.625 115.1875 85.625 118 86 C119.485 85.01 119.485 85.01 121 84 C123.9375 84 123.9375 84 127 85 C129.60523868 88.15370998 131 89.86648155 131 94 C135.2224333 97.26278937 138.46283555 98.63754794 143.625 99.375 C146 100 146 100 148 103 C148.38499891 104.65549531 148.72793135 106.3222433 149 108 C149.763125 107.938125 150.52625 107.87625 151.3125 107.8125 C154 108 154 108 155.875 109.25 C157 111 157 111 156.875 113 C155.86715201 115.30365256 155.06346514 116.54793194 153 118 C150.9375 117.6875 150.9375 117.6875 149 117 C148.34 117 147.68 117 147 117 C145.3553326 119.46326712 145.3553326 119.46326712 144 122 C144.928125 122.061875 145.85625 122.12375 146.8125 122.1875 C150 123 150 123 152 125.25 C153 128 153 128 152.3125 130.6875 C151 133 151 133 149 135 C146 135.25 146 135.25 143 135 C142.34 134.34 141.68 133.68 141 133 C134.07412359 133.40740449 127.45324658 137.84816193 122.41015625 142.33984375 C120.1224928 145.03307634 119.61984051 147.55644163 119 151 C119.70382812 151.27328125 120.40765625 151.5465625 121.1328125 151.828125 C129.25923083 155.14954939 136.74819642 158.74819642 143 165 C143 165.66 143 166.32 143 167 C142.01 167.33 141.02 167.66 140 168 C138.125 166.9609375 138.125 166.9609375 136 165.375 C126.57342825 158.83721636 116.13931807 154.32147487 104.421875 155.19140625 C97.0536716 156.58234261 91.22375411 159.89833052 86.48828125 165.71875 C83.37682755 170.48801237 81.21753038 175.77071736 79 181 C80.32 181 81.64 181 83 181 C83.66 181.99 84.32 182.98 85 184 C85.598125 183.773125 86.19625 183.54625 86.8125 183.3125 C87.534375 183.209375 88.25625 183.10625 89 183 C90.75 184.3125 90.75 184.3125 92 186 C92 186.66 92 187.32 92 188 C93.65 188.33 95.3 188.66 97 189 C97 189.66 97 190.32 97 191 C97.556875 190.649375 98.11375 190.29875 98.6875 189.9375 C101.6020668 188.75591887 103.04965818 188.99067254 106 190 C108.27224876 193.40837313 109.24897823 195.97179234 110 200 C108.625 203.0625 108.625 203.0625 107 206 C106.74803177 209.25100364 106.74803177 209.25100364 107 212 C102.22426677 214.61895048 98.15565119 213.83119431 93 213 C93 212.34 93 211.68 93 211 C82.77262851 214.15416447 82.77262851 214.15416447 75.85546875 221.98046875 C69.18653251 236.04886076 72.31938084 253.12333202 74 268 C74.33 267.67 74.66 267.34 75 267 C78.3125 266.625 78.3125 266.625 82 267 C85.04956189 269.65859242 85.91698737 271.15327115 86.3125 275.1875 C86 278 86 278 85 280 C84.34 280 83.68 280 83 280 C83 280.66 83 281.32 83 282 C82.34 282.66 81.68 283.32 81 284 C84.05630125 284.19088008 84.05630125 284.19088008 86.875 282.8125 C90 282 90 282 92.75 283 C95.5343893 285.47501271 96.23135138 287.38735149 97 291 C96.67 291.66 96.34 292.32 96 293 C97.65 293.33 99.3 293.66 101 294 C102.45882353 301.29411765 102.45882353 301.29411765 100.375 304.5 C97.57846276 306.26623405 96.24919344 306.32491934 93 306 C89.88742431 306 87.89234315 306.17361624 85 307 C85.44472656 307.44730469 85.88945312 307.89460938 86.34765625 308.35546875 C86.91355469 308.96003906 87.47945313 309.56460937 88.0625 310.1875 C88.91521484 311.07501953 88.91521484 311.07501953 89.78515625 311.98046875 C91 314 91 314 90.46508789 316.35522461 C89.91742899 319.46954948 90.35167047 320.56046343 91.7734375 323.3359375 C92.18134521 324.14530762 92.58925293 324.95467773 93.00952148 325.78857422 C93.68543335 327.06885498 93.68543335 327.06885498 94.375 328.375 C94.83398682 329.2633252 95.29297363 330.15165039 95.76586914 331.06689453 C108.40385244 355.33299347 108.40385244 355.33299347 127.3125 374.6875 C127.869375 375.120625 128.42625 375.55375 129 376 C129 376.66 129 377.32 129 378 C127.0137698 378.40743184 125.0079077 378.71818839 123 379 C121.98486328 379.20689453 121.98486328 379.20689453 120.94921875 379.41796875 C118.32717058 379.73932101 116.55988008 379.71199237 114 379 C110.25107579 376.03640089 107.201482 372.5328541 104 369 C102.83433001 367.99494424 101.649396 367.01130541 100.4375 366.0625 C95.59163113 362.00733235 91.89643274 356.93922804 88 352 C87.14744355 350.95831547 86.29324197 349.91797547 85.4375 348.87890625 C71.76119094 332.1106713 60.54368972 313.3913186 51 294 C50.29875 294.66 49.5975 295.32 48.875 296 C45.51896425 298.33463357 44.00106924 298.69583813 40 298 C37.532661 295.7793949 37.03847554 294.56430797 36.8125 291.25 C36.874375 290.5075 36.93625 289.765 37 289 C35.824375 288.690625 35.824375 288.690625 34.625 288.375 C32 287 32 287 30.5 284.1875 C30 281 30 281 31.125 278.25 C32.9960688 276.00471744 34.29672807 275.02537901 37 274 C36.67 273.34 36.34 272.68 36 272 C34.783125 272.37125 33.56625 272.7425 32.3125 273.125 C29.39302766 273.85357628 28.12161923 274.02908286 25.125 273.3125 C23 272 23 272 21 269 C20.58142518 265.16306413 20.45355731 262.88796936 22.5 259.5625 C26.22026379 257.23733513 28.64217141 257.58496871 33 258 C33.99 258.66 34.98 259.32 36 260 C35.34 258.68 34.68 257.36 34 256 C33.67 256.33 33.34 256.66 33 257 C29.5625 256.75 29.5625 256.75 26 256 C24 253 24 253 24.1875 250.5 C25.05860116 247.81968874 25.73798618 246.6530101 28 245 C28.99 245 29.98 245 31 245 C30.566875 243.94039062 30.13375 242.88078125 29.6875 241.7890625 C29.12481865 240.40111517 28.56232855 239.0130903 28 237.625 C27.71382813 236.92632812 27.42765625 236.22765625 27.1328125 235.5078125 C25 230.2265625 25 230.2265625 25 228 C24.08863281 227.78085938 23.17726563 227.56171875 22.23828125 227.3359375 C19.46113443 226.66441131 16.69723393 225.95147137 13.93359375 225.2265625 C10.46397093 224.3282096 6.99654454 223.61235079 3.47265625 222.9609375 C-10.16951999 220.16938687 -10.16951999 220.16938687 -13.40039062 216.34033203 C-15.50171233 212.43400311 -16.4618735 208.25049363 -17.45751953 203.95507812 C-21.30179437 190.10046385 -35.4131354 180.09126818 -47 173 C-64.65753536 163.28619693 -82.33286577 161.25360147 -102 163 C-102.33 162.01 -102.66 161.02 -103 160 C-100.525 159.01 -100.525 159.01 -98 158 C-104.23853536 155.46842043 -110.24320584 153.86001364 -117 155 C-119.7700997 156.96509909 -119.7700997 156.96509909 -122 159 C-124.8125 158.75 -124.8125 158.75 -127 158 C-127.625 155.1875 -127.625 155.1875 -128 152 C-125.9927092 148.9890638 -125.16115776 148.36983503 -122 147 C-122.33 146.01 -122.66 145.02 -123 144 C-123.66 144 -124.32 144 -125 144 C-125 144.66 -125 145.32 -125 146 C-130.75 147.125 -130.75 147.125 -133 146 C-132.67 143.69 -132.34 141.38 -132 139 C-130.02 138.67 -128.04 138.34 -126 138 C-126.20625 137.401875 -126.4125 136.80375 -126.625 136.1875 C-127 134 -127 134 -125 131 C-124.34 131 -123.68 131 -123 131 C-123 130.34 -123 129.68 -123 129 C-121.35 129 -119.7 129 -118 129 C-117.62875 127.8553125 -117.62875 127.8553125 -117.25 126.6875 C-116 124 -116 124 -113.9375 122.5625 C-111.67580896 121.0995868 -111.67580896 121.0995868 -111.5625 118.0625 C-111 115 -111 115 -108.625 112.6875 C-106 111 -106 111 -103 110 C-102.26676204 107.98491642 -102.26676204 107.98491642 -102 106 C-95.375 105 -95.375 105 -92 105 C-91.54625 104.525625 -91.0925 104.05125 -90.625 103.5625 C-88.46619319 101.48672422 -86.95724033 101.28164194 -84 101 C-82.32995171 101.31595508 -80.66362417 101.65179959 -79 102 C-76.32663189 102.08977729 -73.67606087 102.04535696 -71 102 C-70.7525 101.38125 -70.505 100.7625 -70.25 100.125 C-68.7091547 97.50556299 -67.91019654 96.86519357 -65 96 C-58.95833333 96.52083333 -58.95833333 96.52083333 -56 98 C-56 98.66 -56 99.32 -56 100 C-55.21625 100.0825 -54.4325 100.165 -53.625 100.25 C-51 101 -51 101 -49.6875 102.875 C-49 105 -49 105 -49 108 C-44.88858437 106.73084069 -44.88858437 106.73084069 -41.0625 104.8125 C-37.82091747 103.53551294 -35.32585818 104.21388807 -32 105 C-30.0625 106.4375 -30.0625 106.4375 -29 108 C-29 108.66 -29 109.32 -29 110 C-27.7625 110 -26.525 110 -25.25 110 C-22.5 110 -19.75 110 -17 110 C-16.360625 109.773125 -15.72125 109.54625 -15.0625 109.3125 C-13 109 -13 109 -10.25 110.3125 C-9.13625 111.1478125 -9.13625 111.1478125 -8 112 C-8 112.66 -8 113.32 -8 114 C-6.1128125 113.690625 -6.1128125 113.690625 -4.1875 113.375 C-0.5985242 112.78664331 -0.24926122 112.83382585 3 115 C2.42655063 117.86724686 2.1385485 118.8614515 0 121 C-2.625 121.125 -2.625 121.125 -5 121 C-5.33 122.65 -5.66 124.3 -6 126 C-5.34 125.67 -4.68 125.34 -4 125 C1.26843658 124.55162242 1.26843658 124.55162242 3.9375 126.1875 C5 128 5 128 4.9375 130.5625 C4 133 4 133 2.3125 134.375 C0 135 0 135 -2.75 134.1875 C-6.63584088 133.96331687 -7.18457261 134.55565866 -10.0625 137 C-14.9700033 141.7476804 -19.76052866 146.482999 -20.26953125 153.6640625 C-19.78751395 157.84154573 -18.003609 161.5407049 -16.3984375 165.3984375 C-12.43982119 175.59353314 -10.57678471 186.66652708 -8.39428711 197.35400391 C-7.38790602 202.2732666 -6.24906476 207.136385 -5 212 C-4.34 212 -3.68 212 -3 212 C-3 212.66 -3 213.32 -3 214 C-1.9584375 214.23074219 -0.916875 214.46148437 0.15625 214.69921875 C1.60424345 215.02830817 3.05215562 215.35775534 4.5 215.6875 C5.17675781 215.83638672 5.85351562 215.98527344 6.55078125 216.13867188 C8.07989256 216.4899542 9.60137551 216.87528562 11.1159668 217.28466797 C14.14828749 218.0815032 14.14828749 218.0815032 17.89379883 218.60986328 C28.05927718 220.52704301 28.05927718 220.52704301 31.36883545 224.74423218 C34.31317378 230.00339014 35.9700267 235.75196535 37.6875 241.5 C38.51080086 244.05993227 39.35198158 246.61280051 40.20649719 249.16247559 C40.72942302 250.74139034 41.23168733 252.32735386 41.70939636 253.92053223 C43.2448667 258.79225413 45.03252231 261.58352777 49 265 C51 267 51 267 51.01953125 268.8125 C50.95121094 269.534375 50.88289063 270.25625 50.8125 271 C50.63226408 276.8339521 53.1181571 281.06999018 56 286 C56.66 286 57.32 286 58 286 C58.66 285.34 59.32 284.68 60 284 C62.5 283.75 62.5 283.75 65 284 C67 286 67 286 67.125 289.125 C67.08375 290.07375 67.0425 291.0225 67 292 C64.03 293.485 64.03 293.485 61 295 C66.80125767 307.97649741 78.80086638 333.40043319 92 340 C90.57001245 336.91312815 89.12970671 333.8311796 87.6875 330.75 C87.28337891 329.87730469 86.87925781 329.00460937 86.46289062 328.10546875 C86.06650391 327.26113281 85.67011719 326.41679687 85.26171875 325.546875 C84.71970825 324.38430176 84.71970825 324.38430176 84.16674805 323.19824219 C82.96775529 320.93924851 81.54261491 319.03379977 80 317 C79.2265625 314.7734375 79.2265625 314.7734375 78.625 312.375 C76.97457318 306.51164155 74.82146019 299.72164438 70.34375 295.40234375 C68.12744797 293.08940064 69 290.12185829 69 287 C68.15982267 283.28421573 67.10712854 279.64429811 66 276 C65.21496094 275.87109375 64.42992187 275.7421875 63.62109375 275.609375 C61 275 61 275 59.0625 273.25 C58 271 58 271 58.75 268.3125 C60 266 60 266 61 265 C60.53814042 259.2026283 59.29003245 253.67387785 57.98168945 248.015625 C54.87691375 234.51610226 52.8092745 221.13822089 51.3815918 207.36938477 C49.78894681 189.05780612 49.78894681 189.05780612 39.95703125 174.28515625 C33.50164568 169.74083147 26.88209432 166.98526179 19 166 C19 166.66 19 167.32 19 168 C15.2632157 170.49118953 13.25548181 170.2065226 8.8125 170.125 C7.54019531 170.10695312 6.26789063 170.08890625 4.95703125 170.0703125 C3.98121094 170.04710937 3.00539063 170.02390625 2 170 C2 169.34 2 168.68 2 168 C1.34 168 0.68 168 0 168 C-0.62457273 164.56484998 -1 161.50935186 -1 158 C-2.0428962 154.7308817 -2.0428962 154.7308817 -4 152 C-2.77308707 139.73087071 -2.77308707 139.73087071 1.625 135.4375 C5.2123062 133.90957329 5.69403184 133.90811712 9.1875 134.9375 C10.445625 135.288125 11.70375 135.63875 13 136 C14.75 134.75 14.75 134.75 16 133 C16.845625 132.87625 17.69125 132.7525 18.5625 132.625 C19.366875 132.41875 20.17125 132.2125 21 132 C21.68132451 130.33927151 22.34742127 128.672233 23 127 C25.375 125.5625 25.375 125.5625 28 125 C30.3125 125.875 30.3125 125.875 32 127 C32.185625 126.360625 32.37125 125.72125 32.5625 125.0625 C34 123 34 123 37.625 122.25 C38.73875 122.1675 39.8525 122.085 41 122 C42.5625 123.6875 42.5625 123.6875 44 126 C43.875 128.625 43.875 128.625 43 131 C41.515 131.99 41.515 131.99 40 133 C40.495 133.53625 40.99 134.0725 41.5 134.625 C43.42967694 137.68032182 43.36385946 139.43417727 43 143 C42.62488281 143.75796875 42.24976563 144.5159375 41.86328125 145.296875 C40.70304312 148.92983784 41.55568246 150.7813854 42.875 154.3125 C43.26429688 155.38113281 43.65359375 156.44976562 44.0546875 157.55078125 C44.36664063 158.35902344 44.67859375 159.16726562 45 160 C45.0272367 157.47909222 45.04695207 154.95848543 45.0625 152.4375 C45.07087891 151.73302734 45.07925781 151.02855469 45.08789062 150.30273438 C45.10412592 146.7796752 44.93883766 143.62814801 44.36328125 140.12890625 C44.24339844 139.09636719 44.12351562 138.06382812 44 137 C46.125 134.5 46.125 134.5 49 133 C51.6796875 133.40625 51.6796875 133.40625 54 134 C54.50806447 132.27318563 55.00610467 130.54342021 55.5 128.8125 C55.91765625 127.36810547 55.91765625 127.36810547 56.34375 125.89453125 C56.9782054 123.09612976 57.26842911 120.85205928 57 118 C56.34 117.01 55.68 116.02 55 115 C54.53887575 110.84988175 54.52592485 108.73563385 56.8125 105.1875 C59 103 59 103 62 101 C63.32 101 64.64 101 66 101 C66 100.34 66 99.68 66 99 C65.195625 98.71125 64.39125 98.4225 63.5625 98.125 C61 97 61 97 60 95 C59.38898438 95.02320312 58.77796875 95.04640625 58.1484375 95.0703125 C30.70316895 95.61148681 2.85976299 89.95482823 -23.89453125 84.34765625 C-24.99181046 84.11851532 -26.08908966 83.88937439 -27.21961975 83.65328979 C-32.64811967 82.51557351 -38.07073659 81.35618049 -43.48754883 80.1640625 C-45.49422942 79.73533073 -47.5009808 79.30693014 -49.5078125 78.87890625 C-50.40542801 78.67403091 -51.30304352 78.46915558 -52.2278595 78.2580719 C-61.41752339 76.327454 -70.13907781 77.31870546 -79.0625 80.0625 C-79.77946045 80.28019043 -80.4964209 80.49788086 -81.23510742 80.72216797 C-96.36213088 85.50672744 -110.16616035 93.0311826 -123.88208008 100.89013672 C-124.93045044 101.43951904 -124.93045044 101.43951904 -126 102 C-126.72590332 102.38736328 -127.45180664 102.77472656 -128.19970703 103.17382812 C-132.24297371 104.36671517 -135.87291811 103.91836001 -140.03515625 103.5390625 C-141.34691078 103.43493546 -141.34691078 103.43493546 -142.68516541 103.32870483 C-145.47865444 103.1053028 -148.27048624 102.86608572 -151.0625 102.625 C-157.29391812 102.10367019 -163.52588295 101.60480838 -169.76373291 101.16644287 C-171.66926276 101.0246164 -173.57216609 100.84819703 -175.47412109 100.66455078 C-184.27293749 100.12315287 -190.92766544 103.67119785 -198.5 107.625 C-199.73977738 108.25089757 -200.98066183 108.87460718 -202.22265625 109.49609375 C-205.82745449 111.30717312 -209.41395096 113.1520666 -213 115 C-215.25792839 116.15850836 -217.51817248 117.31252018 -219.78125 118.4609375 C-220.74095703 118.95126465 -221.70066406 119.4415918 -222.68945312 119.94677734 C-225 121 -225 121 -227 121 C-226.78515625 119.171875 -226.78515625 119.171875 -226 117 C-223.93359375 115.515625 -223.93359375 115.515625 -221.4375 114.25 C-220.61121094 113.82203125 -219.78492188 113.3940625 -218.93359375 112.953125 C-218.29550781 112.63859375 -217.65742188 112.3240625 -217 112 C-217 108.7823463 -218.8995916 107.32747958 -221 105 C-225.01978206 102.0440679 -228.18356552 101.54855579 -233.125 101.3125 C-234.34445313 101.24675781 -235.56390625 101.18101563 -236.8203125 101.11328125 C-238.87924816 101.03992851 -240.9397581 101 -243 101 C-244.35368596 102.31266518 -245.68799596 103.64567325 -247 105 C-247.66 105 -248.32 105 -249 105 C-249.0825 105.61875 -249.165 106.2375 -249.25 106.875 C-250 109 -250 109 -252.0625 110.25 C-252.701875 110.4975 -253.34125 110.745 -254 111 C-255.5625 109.75 -255.5625 109.75 -257 108 C-256.6875 105.8125 -256.6875 105.8125 -256 104 C-254.02 103.505 -254.02 103.505 -252 103 C-252.33 102.34 -252.66 101.68 -253 101 C-253.639375 100.855625 -254.27875 100.71125 -254.9375 100.5625 C-257 100 -257 100 -259 97 C-257 94 -257 94 -254 93 C-253.54625 92.525625 -253.0925 92.05125 -252.625 91.5625 C-249.77571276 88.82280073 -246.89503418 88 -243 88 C-242.938125 87.38125 -242.87625 86.7625 -242.8125 86.125 C-242 84 -242 84 -239.5625 82.6875 C-237 82 -237 82 -235 83 C-234.87625 82.360625 -234.7525 81.72125 -234.625 81.0625 C-234.41875 80.381875 -234.2125 79.70125 -234 79 C-233.01 78.505 -233.01 78.505 -232 78 C-230.96986723 76.35178756 -229.96885372 74.68496298 -229 73 C-228 72 -228 72 -225.0625 71.8125 C-222 72 -222 72 -220 74 C-217.78927023 74.24253813 -217.78927023 74.24253813 -215.375 74.125 C-214.55773437 74.10695313 -213.74046875 74.08890625 -212.8984375 74.0703125 C-212.27195313 74.04710938 -211.64546875 74.02390625 -211 74 C-211 73.34 -211 72.68 -211 72 C-205.58461538 70.76923077 -205.58461538 70.76923077 -202.625 71.9375 C-202.08875 72.288125 -201.5525 72.63875 -201 73 C-200.34 72.34 -199.68 71.68 -199 71 C-197 71.125 -197 71.125 -195 72 C-193.75 74.0625 -193.75 74.0625 -193 76 C-193.680625 76.5775 -194.36125 77.155 -195.0625 77.75 C-195.701875 78.4925 -196.34125 79.235 -197 80 C-196.86358623 82.21858253 -196.86358623 82.21858253 -196 84 C-194.35 83.34 -192.7 82.68 -191 82 C-188.9375 83.625 -188.9375 83.625 -187 86 C-187.25 89.25 -187.25 89.25 -188 92 C-190.75 92.75 -190.75 92.75 -194 93 C-194.598125 92.34 -195.19625 91.68 -195.8125 91 C-197.77381218 88.7658917 -197.77381218 88.7658917 -200.17578125 88.953125 C-202.46846764 89.23102638 -204.72664022 89.59623726 -207 90 C-207.66 90 -208.32 90 -209 90 C-210.12589491 93.37768474 -210.13294275 96.00812072 -210.125 99.5625 C-210.12757813 100.71878906 -210.13015625 101.87507813 -210.1328125 103.06640625 C-210.20202616 105.93453438 -210.20202616 105.93453438 -209 108 C-208.30551758 107.60619141 -207.61103516 107.21238281 -206.89550781 106.80664062 C-203.69445486 105.0111612 -200.47303277 103.25569509 -197.25 101.5 C-195.61224609 100.56994141 -195.61224609 100.56994141 -193.94140625 99.62109375 C-186.17696549 95.44024103 -180.71493302 94.23548718 -172 95 C-170.63668544 95.07637192 -169.27303978 95.14697478 -167.90917969 95.21289062 C-163.35361368 95.43772883 -158.8021939 95.71578592 -154.25 96 C-151.91649952 96.14436021 -149.58294995 96.28759741 -147.24920654 96.42797852 C-145.81094912 96.51460017 -144.37282352 96.60345406 -142.93487549 96.69506836 C-140.95759449 96.81477584 -138.97874404 96.90757668 -137 97 C-135.95857849 97.05136108 -135.95857849 97.05136108 -134.89611816 97.10375977 C-130.67513385 97.22563517 -127.75313832 96.86285462 -124.0625 94.8125 C-123.23105469 94.36132812 -122.39960938 93.91015625 -121.54296875 93.4453125 C-120.70378906 92.96835938 -119.86460937 92.49140625 -119 92 C-118.12988281 91.52304688 -117.25976562 91.04609375 -116.36328125 90.5546875 C-114.23346512 89.38445886 -112.11336003 88.19961258 -110 87 C-110.70640625 87.0721875 -111.4128125 87.144375 -112.140625 87.21875 C-154.19753401 91.02289252 -154.19753401 91.02289252 -169 79.0625 C-172.83789294 75.46303327 -175.93492257 71.3250228 -179.07373047 67.12475586 C-189.85991096 52.65302159 -189.85991096 52.65302159 -204 42 C-204 41.34 -204 40.68 -204 40 C-207.87061693 39.74257461 -207.87061693 39.74257461 -210.6875 41.125 C-215.1969337 42.31617117 -218.67379774 41.64767469 -223 40 C-225.1875 38.1875 -225.1875 38.1875 -226 36 C-225.690625 35.236875 -225.38125 34.47375 -225.0625 33.6875 C-223.58351028 29.94652599 -224.85468556 27.77280051 -226 24 C-225.67488558 19.66514111 -223.90288423 15.87895632 -222 12 C-218.78067978 9.85378652 -218.52218228 9.77462802 -215 10.375 C-210.4216474 11.12071652 -206.57540811 10.81340589 -202 10 C-201.67 9.01 -201.34 8.02 -201 7 C-197.625 6.375 -197.625 6.375 -194 6 C-193.01 6.99 -193.01 6.99 -192 8 C-191.01 6.68 -190.02 5.36 -189 4 C-186.625 4.1875 -186.625 4.1875 -184 5 C-182.6875 7.5625 -182.6875 7.5625 -182 10 C-183.65 11.32 -185.3 12.64 -187 14 C-186.01 15.32 -185.02 16.64 -184 18 C-183.443125 17.46375 -182.88625 16.9275 -182.3125 16.375 C-180 15 -180 15 -177.375 15.625 C-175 17 -175 17 -173 20 C-173.125 22.5625 -173.125 22.5625 -174 25 C-176.56310828 26.7941758 -177.83119306 27 -181 27 C-181.05864392 30.66659815 -181.09381108 34.33307364 -181.125 38 C-181.15013672 39.54494141 -181.15013672 39.54494141 -181.17578125 41.12109375 C-181.2528683 53.22376127 -178.35173832 60.49462423 -170.171875 69.484375 C-169 71 -169 71 -169 73 C-168.34 73 -167.68 73 -167 73 C-167.11480031 70.14509764 -167.24152964 67.2915412 -167.375 64.4375 C-167.4059375 63.63763672 -167.436875 62.83777344 -167.46875 62.01367188 C-167.71188329 57.04970047 -168.25855269 52.67441121 -170 48 C-172.39529669 46.67518454 -172.39529669 46.67518454 -175 46 C-176.875 44.75 -176.875 44.75 -178 43 C-177.875 39.9375 -177.875 39.9375 -177 37 C-173.76746204 34.84497469 -172.74849077 34.53143865 -169 35 C-167.1875 36 -167.1875 36 -166 38 C-166 39.88697753 -166.00949991 41.77506046 -166.09375 43.66015625 C-165.92018303 47.99209857 -164.36320093 51.91039722 -163 56 C-162.34 52.04 -161.68 48.08 -161 44 C-161.66 44 -162.32 44 -163 44 C-165.4437201 40.33441986 -165.15711416 38.32063942 -165 34 C-165 33.34 -165 32.68 -165 32 C-166.485 31.505 -166.485 31.505 -168 31 C-168.625 28.1875 -168.625 28.1875 -169 25 C-168.01 23.515 -168.01 23.515 -167 22 C-163.80165127 21.49499757 -162.4213623 21.72668391 -159.6875 23.5 C-159.130625 23.995 -158.57375 24.49 -158 25 C-157.34 24.34 -156.68 23.68 -156 23 C-152.4375 23.25 -152.4375 23.25 -149 24 C-148.505 24.99 -148.505 24.99 -148 26 C-146.21593527 26.68789577 -146.21593527 26.68789577 -144.125 27.125 C-143.42632812 27.29257812 -142.72765625 27.46015625 -142.0078125 27.6328125 C-138.31755048 28.30768532 -137.21154825 28.14103216 -134 26 C-127.77777778 26.22222222 -127.77777778 26.22222222 -125.25 28.75 C-124.63125 29.86375 -124.63125 29.86375 -124 31 C-123.195625 32.2375 -123.195625 32.2375 -122.375 33.5 C-121.14429295 35.73764918 -120.3595476 37.4831668 -120 40 C-120.33 40.33 -120.66 40.66 -121 41 C-121.75923729 44.39727382 -121.75923729 44.39727382 -122 48 C-121.34 48.99 -120.68 49.98 -120 51 C-120.3241369 54.32240324 -120.60776303 55.60776303 -123 58 C-128.23949305 59.81367067 -132.97947681 60.9195046 -138.38671875 59.2734375 C-141.08610051 58.72621949 -141.08610051 58.72621949 -143.38671875 60.43359375 C-144.14597656 61.09488281 -144.90523438 61.75617187 -145.6875 62.4375 C-149.83561644 66 -149.83561644 66 -152 66 C-152.226875 66.53625 -152.45375 67.0725 -152.6875 67.625 C-154 70 -154 70 -156.5625 73.0625 C-159.13537799 75.80205688 -159.13537799 75.80205688 -160 79 C-158.45859034 79.31376521 -156.91685785 79.62594465 -155.375 79.9375 C-154.08722656 80.19853516 -154.08722656 80.19853516 -152.7734375 80.46484375 C-151.85820312 80.64144531 -150.94296875 80.81804687 -150 81 C-149.07445312 81.17917969 -148.14890625 81.35835938 -147.1953125 81.54296875 C-123.60072874 84.91774418 -98.77890795 78.58135415 -76.04272461 72.79248047 C-63.39607755 69.73557181 -52.08328324 72.6568933 -39.61181641 75.26708984 C-22.80572002 78.77660745 -6.02988646 81.78106352 11 84 C10.22943862 82.41462906 9.45367395 80.83178659 8.67578125 79.25 C8.24434814 78.36828125 7.81291504 77.4865625 7.3684082 76.578125 C6.11793873 74.22220036 4.77128247 72.14056562 3.1875 70 C1 67 1 67 1 65 C0.34 65 -0.32 65 -1 65 C-2.06860995 63.83370548 -3.0802998 62.61494068 -4.0625 61.375 C-9.03946678 55.5148554 -14.82281982 51.69459045 -22 49 C-22 49.66 -22 50.32 -22 51 C-24.79870027 52.39935013 -26.90498792 52.25265405 -30 52 C-32.08477638 50.56222319 -32.81239178 49.40201761 -33.875 47.125 C-34.05749288 44.02262099 -32.82522893 42.43363858 -31 40 C-30.34 40 -29.68 40 -29 40 C-29 39.34 -29 38.68 -29 38 C-29.53625 38.33 -30.0725 38.66 -30.625 39 C-34.60102951 40.67411769 -37.84318715 40.40236969 -41.875 39 C-42.57625 38.67 -43.2775 38.34 -44 38 C-44.1546875 39.423125 -44.1546875 39.423125 -44.3125 40.875 C-45 44 -45 44 -48 46 C-50.4375 46.375 -50.4375 46.375 -53 46 C-55.24432982 44.12972515 -56.69443202 42.61113596 -58 40 C-60.475 40.495 -60.475 40.495 -63 41 C-63.99 39.35 -64.98 37.7 -66 36 C-64.1875 34 -64.1875 34 -62 32 C-61.01 32 -60.02 32 -59 32 C-58.835 31.236875 -58.67 30.47375 -58.5 29.6875 C-56.27710151 25.70480688 -53.1954236 25.28349479 -49 24 C-47.33094605 23.33933281 -45.6630584 22.67561748 -44 22 C-44.103125 21.2575 -44.20625 20.515 -44.3125 19.75 C-44 17 -44 17 -41.8125 14.625 C-39 13 -39 13 -36.3125 13.1875 C-34 14 -34 14 -32 15 C-27.37925035 16.07459294 -23.62660467 16.0935611 -19 15 C-17.2925002 13.71937515 -15.61736259 12.3927289 -14 11 C-13.01 11 -12.02 11 -11 11 C-11.103125 10.113125 -11.20625 9.22625 -11.3125 8.3125 C-11 5 -11 5 -8.875 2.125 C-5.50050447 -0.36919235 -4.09905842 -0.61049806 0 0 Z M-186 22 C-188.36436613 23.92035561 -188.36436613 23.92035561 -188.1875 27.3125 C-188.03317813 30.34749675 -187.71340141 33.05721919 -187 36 C-186.34 35.67 -185.68 35.34 -185 35 C-184.26922664 32.49089117 -184.26922664 32.49089117 -183.8125 29.5625 C-183.63332031 28.57378906 -183.45414062 27.58507812 -183.26953125 26.56640625 C-182.76873371 24.01404178 -182.76873371 24.01404178 -184 22 C-184.66 22 -185.32 22 -186 22 Z M-199 24 C-199.58963678 26.24224658 -199.58963678 26.24224658 -199 29 C-196.89567168 31.30396973 -194.55695328 33.21565131 -192 35 C-191.67 35 -191.34 35 -191 35 C-191.06006078 33.54052295 -191.1488689 32.08220728 -191.25 30.625 C-191.29640625 29.81289063 -191.3428125 29.00078125 -191.390625 28.1640625 C-191.7942693 25.8505175 -191.7942693 25.8505175 -193.859375 24.7109375 C-196.09858209 23.84240575 -196.09858209 23.84240575 -199 24 Z M-160 28 C-159 30 -159 30 -159 30 Z M-11 30 C-11.66 32.97 -12.32 35.94 -13 39 C-12.34 39 -11.68 39 -11 39 C-10.773125 39.556875 -10.54625 40.11375 -10.3125 40.6875 C-8.64363942 43.6278734 -6.41211335 45.6502353 -4 48 C-3.91925797 45.37438891 -3.8596377 42.75124324 -3.8125 40.125 C-3.78736328 39.37863281 -3.76222656 38.63226563 -3.73632812 37.86328125 C-3.6701236 35.43778172 -3.6701236 35.43778172 -4 32 C-6.95377498 29.63019987 -6.95377498 29.63019987 -11 30 Z M-207 35 C-206.1875 37.125 -206.1875 37.125 -204.25 37.875 C-202 39 -202 39 -199.375 41.125 C-197.24269401 43.2065481 -197.24269401 43.2065481 -195 43 C-195 43.66 -195 44.32 -195 45 C-193.21387689 46.80693756 -193.21387689 46.80693756 -191 48.625 C-190.2575 49.25664063 -189.515 49.88828125 -188.75 50.5390625 C-188.1725 51.02117188 -187.595 51.50328125 -187 52 C-186.67 51.34 -186.34 50.68 -186 50 C-187.07538743 47.35304618 -187.07538743 47.35304618 -188.6875 44.5 C-189.20699219 43.5203125 -189.72648437 42.540625 -190.26171875 41.53125 C-192.03558651 38.94817965 -193.10480286 38.05968 -196 37 C-196 36.34 -196 35.68 -196 35 C-200.56253822 31.04580021 -202.07799417 31.89136474 -207 35 Z M-1 33 C-1.22424141 40.36259293 -0.90120099 46.87049629 1 54 C1.33 54 1.66 54 2 54 C2.13277344 52.84242187 2.26554687 51.68484375 2.40234375 50.4921875 C2.58065082 48.95311592 2.75904062 47.41405393 2.9375 45.875 C3.06801758 44.73417969 3.06801758 44.73417969 3.20117188 43.5703125 C3.6915487 39.35670423 4.25902978 35.178805 5 31 C2.91571791 31 0.90182036 32.21976601 -1 33 Z M-191 35 C-190 37 -190 37 -190 37 Z M-23 40 C-22.08498026 43.03321459 -21.55639844 44.63381455 -18.86328125 46.40625 C-18.02152344 46.7671875 -17.17976562 47.128125 -16.3125 47.5 C-11.75106638 49.58541595 -7.98648571 51.96680435 -4 55 C-6.46652401 49.62873705 -10.416027 42.55189511 -16.01171875 40.12890625 C-18.07831018 39.79209392 -18.07831018 39.79209392 -21 40 C-21.66 40 -22.32 40 -23 40 Z M-152 42 C-152.66 42.66 -153.32 43.32 -154 44 C-155.32 44.33 -156.64 44.66 -158 45 C-158 48.63 -158 52.26 -158 56 C-156.88625 55.0925 -155.7725 54.185 -154.625 53.25 C-153.99851562 52.73953125 -153.37203125 52.2290625 -152.7265625 51.703125 C-150.88682752 49.8883638 -149.89702694 48.41807262 -149 46 C-149.78309467 43.76529595 -149.78309467 43.76529595 -151 42 C-151.33 42 -151.66 42 -152 42 Z M-148 51 C-154.8696209 57.04526639 -159.87641381 63.2947011 -163 72 C-162.67 72.66 -162.34 73.32 -162 74 C-160.82739389 72.71372289 -159.6620717 71.42080217 -158.5 70.125 C-157.8503125 69.40570313 -157.200625 68.68640625 -156.53125 67.9453125 C-154.79382728 66.15068902 -154.79382728 66.15068902 -155 64 C-154.44828125 63.7421875 -153.8965625 63.484375 -153.328125 63.21875 C-150.65685825 61.82036875 -148.23148091 60.21236695 -145.75 58.5 C-144.85796875 57.8915625 -143.9659375 57.283125 -143.046875 56.65625 C-142.37140625 56.1096875 -141.6959375 55.563125 -141 55 C-141 54.34 -141 53.68 -141 53 C-143.31 52.34 -145.62 51.68 -148 51 Z M-216 95 C-215 97 -215 97 -215 97 Z M-220 97 C-220.99 98.485 -220.99 98.485 -222 100 C-220.68 100.99 -219.36 101.98 -218 103 C-218.33 101.02 -218.66 99.04 -219 97 C-219.33 97 -219.66 97 -220 97 Z M-93 108 C-92 110 -92 110 -92 110 Z M113 114 C113.144375 114.82242188 113.28875 115.64484375 113.4375 116.4921875 C115.1300698 126.67111421 115.31724473 135.79135336 114 146 C119.1513748 140.8486252 120.25013364 128.74887288 120.5625 121.6875 C120.54586073 119.15351477 120.54586073 119.15351477 120 117 C117.54305747 114.73702662 116.3203746 114 113 114 Z M124 116 C123.53411453 118.82517725 123.30384499 121.29079561 123.25 124.125 C123.22035156 124.87910156 123.19070313 125.63320312 123.16015625 126.41015625 C123.08942068 128.27285953 123.04245017 130.13643755 123 132 C125.72198929 129.31460888 128.39760939 126.6543656 130.8125 123.6875 C131.8953125 122.3571875 131.8953125 122.3571875 133 121 C132.01 118.69 131.02 116.38 130 114 C127.26726752 114 126.17658825 114.2923515 124 116 Z M-8 115 C-8.33 115.99 -8.66 116.98 -9 118 C-8.34 118 -7.68 118 -7 118 C-7.33 117.01 -7.66 116.02 -8 115 Z M-79 116 C-80.98 118.97 -80.98 118.97 -83 122 C-81.68 124.31 -80.36 126.62 -79 129 C-76.53401431 126.53401431 -75.34805991 124.20966645 -74 121 C-74.19530151 118.70112992 -74.19530151 118.70112992 -75 117 C-76.32 116.67 -77.64 116.34 -79 116 Z M-71 121 C-75.1428035 129.02668177 -75.46321804 136.07018562 -75 145 C-74.67 145 -74.34 145 -74 145 C-73.85304687 144.39414063 -73.70609375 143.78828125 -73.5546875 143.1640625 C-71.6196366 135.93542409 -68.74583582 128.68513941 -63.3125 123.33984375 C-61.76674006 122.07447879 -61.76674006 122.07447879 -62 120 C-65.04200046 120 -67.99532806 120.55486342 -71 121 Z M-60 123 C-61.13031603 124.72569639 -62.25403107 126.45571739 -63.375 128.1875 C-64.00148437 129.15042969 -64.62796875 130.11335937 -65.2734375 131.10546875 C-68.3595282 136.12133627 -68.3595282 136.12133627 -68.625 141.8125 C-68.315625 142.8953125 -68.315625 142.8953125 -68 144 C-66.31197266 144.05607422 -66.31197266 144.05607422 -64.58984375 144.11328125 C-53.01669139 144.57955233 -42.234914 146.122091 -31 149 C-31.80042237 142.59662101 -35.19573766 135.29855052 -40 131 C-42.61602855 130.2758833 -45.16540483 129.81544387 -47.85546875 129.45703125 C-48.56316406 129.30621094 -49.27085937 129.15539062 -50 129 C-50.33 128.34 -50.66 127.68 -51 127 C-52.6476038 126.28752268 -54.31763529 125.62599617 -56 125 C-57.33859725 124.34396675 -58.67294976 123.67908754 -60 123 Z M127 131 C126.67 131.99 126.34 132.98 126 134 C127.67401097 133.35199575 129.33805262 132.67834587 131 132 C131.73605469 131.72027344 132.47210938 131.44054687 133.23046875 131.15234375 C138.30960324 129.12623954 138.30960324 129.12623954 142.0625 125.25 C142.371875 124.5075 142.68125 123.765 143 123 C135.10510163 121.87215738 131.75019548 124.80460789 127 131 Z M-25 124 C-26.2576836 125.7206244 -26.2576836 125.7206244 -27 128 C-26.15602044 130.43903418 -26.15602044 130.43903418 -24.625 132.75 C-24.14289063 133.54921875 -23.66078125 134.3484375 -23.1640625 135.171875 C-22.77992188 135.77515625 -22.39578125 136.3784375 -22 137 C-20.05731159 134.08596738 -18.53604696 131.14191424 -17 128 C-20.48783514 124.75283938 -20.48783514 124.75283938 -25 124 Z M-85 127 C-85.33 127.66 -85.66 128.32 -86 129 C-85.34 129 -84.68 129 -84 129 C-83.67 129.99 -83.34 130.98 -83 132 C-82.67 131.01 -82.34 130.02 -82 129 C-82.33 128.34 -82.66 127.68 -83 127 C-83.66 127 -84.32 127 -85 127 Z M-14 129 C-15.70566866 131.51586128 -17.07028001 134.10217147 -18 137 C-17.67 137.66 -17.34 138.32 -17 139 C-16.67 138.01 -16.34 137.02 -16 136 C-14.34561387 135.30341637 -12.67745682 134.63903117 -11 134 C-8.3703012 131.93380808 -7.56536994 130.27914568 -7 127 C-9.93379693 127 -11.4202451 127.52585434 -14 129 Z M-38 128 C-36.62539147 130.92595245 -35.0140382 133.44427348 -33.125 136.0625 C-29.73492225 141.04790845 -27.81693889 146.28198643 -26 152 C-25.67 152 -25.34 152 -25 152 C-24.52808661 143.6366461 -24.67074589 136.39449243 -29 129 C-31.95664519 127.5216774 -34.74229737 127.93967217 -38 128 Z M-89 130 C-91.43510291 131.994516 -91.43510291 131.994516 -91.25 135.9375 C-91.09486328 142.78567793 -90.36101461 149.94170056 -87 156 C-86.34 156 -85.68 156 -85 156 C-85 156.66 -85 157.32 -85 158 C-84.40687012 158.06469482 -83.81374023 158.12938965 -83.20263672 158.19604492 C-66.91971112 160.03169504 -53.55450654 162.75226927 -39.42578125 171.546875 C-36.99497035 173.12180799 -36.99497035 173.12180799 -34 174 C-34 174.66 -34 175.32 -34 176 C-32.51573767 177.58191818 -32.51573767 177.58191818 -30.625 179.125 C-29.99851563 179.66382813 -29.37203125 180.20265625 -28.7265625 180.7578125 C-27.08391572 182.19467147 -27.08391572 182.19467147 -25 182 C-24.74347656 182.57234375 -24.48695313 183.1446875 -24.22265625 183.734375 C-22.87777467 186.22648783 -21.31486882 188.13355081 -19.4375 190.25 C-18.50744141 191.30960938 -18.50744141 191.30960938 -17.55859375 192.390625 C-17.04425781 192.92171875 -16.52992188 193.4528125 -16 194 C-15.67 194 -15.34 194 -15 194 C-14.83988854 188.46999633 -15.25204336 183.50582717 -16.625 178.125 C-16.7988623 177.43535156 -16.97272461 176.74570313 -17.15185547 176.03515625 C-18.74462976 170.16343017 -21.04252539 164.70374125 -25 160 C-25.66 160 -26.32 160 -27 160 C-27.23460937 159.39414063 -27.46921875 158.78828125 -27.7109375 158.1640625 C-30.61738552 153.28475279 -37.70329958 151.19848542 -43 149.75 C-56.49981814 146.89375105 -70.35991807 147.85480572 -84 149 C-84 148.01 -84 147.02 -84 146 C-82.35 145.67 -80.7 145.34 -79 145 C-80.39826464 139.40694142 -83.24087492 135.28009079 -87 131 C-87.66 130.67 -88.32 130.34 -89 130 Z M34 130 C34 130.66 34 131.32 34 132 C34.99 131.67 35.98 131.34 37 131 C36.01 130.67 35.02 130.34 34 130 Z M-96 132 C-96 132.66 -96 133.32 -96 134 C-97.98 134.99 -97.98 134.99 -100 136 C-99.43142803 143.81786456 -97.24127916 150.97252896 -92 157 C-91.34 156.67 -90.68 156.34 -90 156 C-90.20496094 155.44054687 -90.40992188 154.88109375 -90.62109375 154.3046875 C-93.10268428 146.91928411 -93.67593448 139.75522303 -94 132 C-94.66 132 -95.32 132 -96 132 Z M-108 136 C-109.25664978 138.90600261 -110 140.79604584 -110 144 C-106.19572508 146.2013866 -106.19572508 146.2013866 -102 147 C-102.11409593 145.54077307 -102.24165544 144.08259402 -102.375 142.625 C-102.47941406 141.40683594 -102.47941406 141.40683594 -102.5859375 140.1640625 C-102.82892588 137.79665809 -102.82892588 137.79665809 -105 136 C-105.99 136 -106.98 136 -108 136 Z M29 146 C27.69779443 147.10184323 27.69779443 147.10184323 27.6015625 149.81640625 C27.6724871 153.16294629 27.6724871 153.16294629 30.3359375 155.15234375 C31.33882813 155.74144531 32.34171875 156.33054688 33.375 156.9375 C34.37273437 157.54464844 35.37046875 158.15179688 36.3984375 158.77734375 C37.25695312 159.18082031 38.11546875 159.58429688 39 160 C39.66 159.67 40.32 159.34 41 159 C39.50062538 151.9198653 39.50062538 151.9198653 34.98828125 146.7890625 C32.56719987 146.12130917 32.56719987 146.12130917 29 146 Z M50 146 C47.95629386 152.13111842 48.96092014 158.76552084 50 165 C50.33 165 50.66 165 51 165 C51.33 158.73 51.66 152.46 52 146 C51.34 146 50.68 146 50 146 Z M-118 148 C-117.67 148.66 -117.34 149.32 -117 150 C-113.95418731 150.46954261 -113.95418731 150.46954261 -110.4375 150.625 C-109.23996094 150.69976562 -108.04242188 150.77453125 -106.80859375 150.8515625 C-105.88175781 150.90054688 -104.95492187 150.94953125 -104 151 C-108.78303205 147.02345582 -112.2046595 144.35108191 -118 148 Z M23.3125 159.5 C22.549375 160.325 21.78625 161.15 21 162 C22.02738281 162.35191406 23.05476563 162.70382813 24.11328125 163.06640625 C32.87020783 166.15546715 40.40642984 169.56223154 48 175 C46.57268007 172.07153324 45.13071088 169.48582937 43 167 C42.34 167 41.68 167 41 167 C40.77183594 166.40703125 40.54367187 165.8140625 40.30859375 165.203125 C38.64155303 162.39652511 36.87094635 161.38310537 34.0625 159.75 C33.18722656 159.22921875 32.31195313 158.7084375 31.41015625 158.171875 C27.50818049 156.27464206 26.51928914 156.51694033 23.3125 159.5 Z M77 186 C76.67 187.65 76.34 189.3 76 191 C76.99 191.495 76.99 191.495 78 192 C78.66 190.68 79.32 189.36 80 188 C79.34 188 78.68 188 78 188 C77.67 187.34 77.34 186.68 77 186 Z M76 196 C76 198.97 76 201.94 76 205 C77.9451 202.08235 78.45276317 200.37462715 79 197 C78.01 196.67 77.02 196.34 76 196 Z M86 198 C84.03243548 198.03122943 84.03243548 198.03122943 82 199 C80.6954344 201.99615946 80.6954344 201.99615946 80 205 C83.54518884 203.60240095 83.54518884 203.60240095 87 202 C86.67 200.68 86.34 199.36 86 198 Z M83.8125 206.6875 C80.87245245 208.87671725 80.87245245 208.87671725 79 212 C80.60597325 211.54803755 82.20972508 211.08817673 83.8125 210.625 C84.70582031 210.36976563 85.59914063 210.11453125 86.51953125 209.8515625 C89.20467896 209.04733339 89.20467896 209.04733339 92 207 C88.44276832 204.90751078 87.56716248 204.69973751 83.8125 206.6875 Z M37 263 C37.33 264.32 37.66 265.64 38 267 C38.33 266.34 38.66 265.68 39 265 C38.34 264.34 37.68 263.68 37 263 Z M81 295 C81 295.66 81 296.32 81 297 C81.66 296.67 82.32 296.34 83 296 C82.34 295.67 81.68 295.34 81 295 Z " fill="#000000" transform="translate(259,0)"/>
<path d="M0 0 C3.63525215 2.60789828 4.83397068 4.0702358 5.625 8.5 C4.82883761 12.95850936 3.69186542 14.40783917 0 17 C-3.82264001 17.39544552 -6.36217368 17.21260877 -10 16 C-12.27976338 12.76033624 -12.47496359 9.87886935 -12 6 C-8.58016217 0.87024326 -6.21171935 -0.73079051 0 0 Z " fill="#000000" transform="translate(312,71)"/>
<path d="M0 0 C2.65136243 2.00643643 3.81070195 3.17970845 4.5625 6.4375 C3.73181298 10.22174087 2.04569423 11.68262395 -1 14 C-4.20352299 14.37688506 -6.11138291 14.44430855 -9 13 C-9 12.34 -9 11.68 -9 11 C-9.66 11 -10.32 11 -11 11 C-11.49065421 4.62149533 -11.49065421 4.62149533 -9.125 1.625 C-5.65248153 -1.0304553 -4.20018142 -1.30005615 0 0 Z " fill="#000000" transform="translate(340,142)"/>
<path d="M0 0 C3.125 0.3125 3.125 0.3125 5.0625 2.0625 C6.125 4.3125 6.125 4.3125 6.125 6.375 C4.72378478 9.0898545 2.79220743 9.94470132 0.125 11.3125 C-1.525 10.3225 -3.175 9.3325 -4.875 8.3125 C-3.87059118 0.42071643 -3.87059118 0.42071643 0 0 Z " fill="#000000" transform="translate(201.875,44.6875)"/>
</svg>
